<svg width="60" height="58" viewBox="0 0 60 58" fill="none" xmlns="http://www.w3.org/2000/svg">
<g clip-path="url(#clip0)">
<path d="M59.9998 11.2347C59.9998 9.64544 59.3719 8.15151 58.2283 7.0258L53.1533 2.03012C52.0294 0.922559 50.4713 0.287598 48.879 0.287598C47.2867 0.287598 45.7285 0.922559 44.6033 2.03144L43.3747 3.24082C42.8632 3.74441 42.8632 4.55834 43.3747 5.06192C43.8863 5.56551 44.7131 5.56551 45.2247 5.06192L46.4533 3.85254C47.7289 2.59557 50.0277 2.59557 51.3033 3.85254L56.3782 8.84823C57.0258 9.48573 57.383 10.3332 57.383 11.2347C57.383 12.1361 57.0272 12.9836 56.3782 13.6224L51.2247 18.6955C50.7131 19.1991 50.717 20.0169 51.2286 20.5205L51.99 21.2713C52.0921 21.3705 52.1497 21.5083 52.1497 21.6486C52.1497 22.0826 51.5361 22.3338 51.2247 22.0259L37.9178 8.92681C37.8157 8.82631 37.7582 8.68852 37.7582 8.54818C37.7582 8.11288 38.3717 7.8643 38.6832 8.17087L47.2998 16.6529C47.8114 17.1565 48.6382 17.1565 49.1498 16.6529C49.6614 16.1493 49.6614 15.3354 49.1498 14.8318L40.5345 6.3511C39.9471 5.77159 39.1333 5.43923 38.2999 5.43923C36.5585 5.43923 35.1416 6.83399 35.1416 8.54818C35.1416 9.29127 35.432 10.0126 35.9239 10.5754L6.74168 39.3017C6.2301 39.8053 6.2301 40.6192 6.74168 41.1228L14.5916 48.8501C14.8467 49.1012 15.1817 49.2274 15.5166 49.2274C15.8516 49.2274 16.1865 49.1012 16.4416 48.8501C16.9532 48.3465 16.9532 47.5326 16.4416 47.029L9.51667 40.2122L37.7583 12.4117L47.6832 22.1816L18.7718 50.6402L8.3288 53.2096L6.23674 51.1502L7.62744 45.6766C7.80407 44.9863 7.3775 44.2869 6.67501 44.1144C5.9724 43.9366 5.26463 44.3617 5.08934 45.052L2.47266 55.3553C2.36011 55.7945 2.49222 56.2581 2.81671 56.5789C3.06395 56.8223 3.39889 56.955 3.7417 56.955C3.84773 56.955 3.95364 56.9421 4.05832 56.9163L19.7582 53.0527C19.9885 52.996 20.1991 52.8788 20.3666 52.714L49.5488 23.9876C50.1192 24.4731 50.8506 24.7578 51.6082 24.7578C53.3496 24.7578 54.7665 23.363 54.7665 21.6488C54.7665 20.9044 54.4877 20.1741 53.9946 19.6113L58.2283 15.4424C59.3705 14.3179 59.9998 12.8239 59.9998 11.2347Z" fill="#BB0000"/>
<path d="M38.6835 17.4069C38.1719 16.9033 37.345 16.9033 36.8335 17.4069L14.5919 39.301C14.0803 39.8046 14.0803 40.6185 14.5919 41.1221C14.847 41.3732 15.182 41.4994 15.5169 41.4994C15.8518 41.4994 16.1868 41.3732 16.4419 41.1221L38.6835 19.228C39.1949 18.7244 39.1949 17.9104 38.6835 17.4069Z" fill="#BB0000"/>
<path d="M42.6084 21.2705C42.0968 20.7669 41.27 20.7669 40.7584 21.2705L18.5169 43.1646C18.0053 43.6682 18.0053 44.4822 18.5169 44.9857C18.772 45.2369 19.1069 45.363 19.4419 45.363C19.7768 45.363 20.1117 45.2369 20.3669 44.9857L42.6084 23.0916C43.12 22.588 43.12 21.7741 42.6084 21.2705Z" fill="#BB0000"/>
<rect x="0.904409" y="0.0173668" width="9.48257" height="1.27745" rx="0.638726" transform="matrix(0.721535 -0.692378 0.694423 0.719567 5.8574 18.1339)" stroke="#BB0000" stroke-width="1.27745"/>
<rect x="0.904409" y="0.0173667" width="5.33795" height="1.27745" rx="0.638726" transform="matrix(0.721535 -0.692378 0.694423 0.719567 12.2676 24.7386)" stroke="#BB0000" stroke-width="1.27745"/>
<rect x="0.904409" y="0.0173668" width="9.38275" height="1.27745" rx="0.638726" transform="matrix(0.721535 -0.692378 0.694423 0.719567 32.5281 45.0803)" stroke="#BB0000" stroke-width="1.27745"/>
<rect x="0.904409" y="0.0173668" width="5.09065" height="1.27745" rx="0.638726" transform="matrix(0.721535 -0.692378 0.694422 0.719568 38.4453 50.2194)" stroke="#BB0000" stroke-width="1.27745"/>
</g>
<path d="M3.18649 14.629C2.59988 14.044 2.59988 13.0956 3.1865 12.5107L12.5463 3.17742C13.1329 2.59247 14.084 2.59247 14.6706 3.17742L21.5282 10.0156L28.3859 16.8538C28.9725 17.4387 28.9725 18.3871 28.3859 18.9721L19.0261 28.3053C18.4395 28.8903 17.4884 28.8903 16.9018 28.3053L3.18649 14.629Z" stroke="#BB0000" stroke-width="3"/>
<path d="M31.451 42.1865C30.8644 41.6015 30.8644 40.6531 31.451 40.0682L40.4965 31.0484C41.0831 30.4634 42.0342 30.4634 42.6208 31.0484L48.9568 37.3664L55.2928 43.6845C55.8794 44.2694 55.8794 45.2178 55.2928 45.8028L46.2474 54.8226C45.6608 55.4075 44.7097 55.4075 44.1231 54.8226L31.451 42.1865Z" stroke="#BB0000" stroke-width="3"/>
<defs>
<clipPath id="clip0">
<path d="M2.43335 0.286865H60V56.9543H2.43335V0.286865Z" fill="white"/>
</clipPath>
</defs>
</svg>
