<svg width="308" height="306" viewBox="0 0 308 306" fill="none" xmlns="http://www.w3.org/2000/svg">
<path d="M15 92.7818V18C15 16.3431 16.3431 15 18 15H290C291.657 15 293 16.3431 293 18V288C293 289.657 291.657 291 290 291H18C16.3431 291 15 289.657 15 288V170.564" stroke="#F3F3F3" stroke-width="30"/>
<path d="M95.8728 240.818V163.036M95.8728 163.036V145.255C95.8728 112.117 122.736 85.2545 155.873 85.2545H177.875C199.583 85.2545 217.182 102.853 217.182 124.562V124.562C217.182 146.427 199.339 164.089 177.475 163.867L95.8728 163.036Z" stroke="#F3F3F3" stroke-width="30"/>
</svg>
