<?xml version="1.0"?>
<svg xmlns="http://www.w3.org/2000/svg" xmlns:xlink="http://www.w3.org/1999/xlink" xmlns:svgjs="http://svgjs.com/svgjs" version="1.1" width="512" height="512" x="0" y="0" viewBox="0 0 512 512" style="enable-background:new 0 0 512 512" xml:space="preserve" class=""><g>
<g xmlns="http://www.w3.org/2000/svg">
	<g>
		<path d="M415.435,64h-9.536c-1.346-0.001-2.691,0.066-4.03,0.201c-22.045,2.215-38.121,21.882-35.906,43.927l4.768,47.733    c1.997,20.544,19.295,36.197,39.936,36.139h0c20.641,0.058,37.939-15.595,39.936-36.139l4.768-47.733    c0.135-1.339,0.202-2.684,0.201-4.03C455.561,81.941,437.591,63.989,415.435,64z M434.133,106.005l-4.747,47.733    c-0.901,8.885-7.927,15.91-16.812,16.812c-10.333,1.048-19.559-6.479-20.607-16.812l-4.768-47.733    c-0.064-0.631-0.095-1.264-0.095-1.898c0.005-10.374,8.42-18.78,18.794-18.774h9.536c0.634,0,1.267,0.031,1.898,0.095    C427.654,86.471,435.176,95.684,434.133,106.005z" fill="#bb0000" data-original="#000000" style="" class=""/>
	</g>
</g>
<g xmlns="http://www.w3.org/2000/svg">
	<g>
		<path d="M478.251,163.787l-2.997-1.995l-11.84,17.749l3.008,2.005c15.162,10.084,24.265,27.092,24.245,45.301V288    c0,17.673-14.327,32-32,32H416c-5.891,0-10.667-4.776-10.667-10.667c0-5.891,4.776-10.667,10.667-10.667h42.667    c5.891,0,10.667-4.776,10.667-10.667v-42.667H448v32h-32c-17.673,0-32,14.327-32,32c0,17.673,14.327,32,32,32h42.667    C488.107,341.298,511.965,317.441,512,288v-61.152C512.026,201.501,499.355,177.826,478.251,163.787z" fill="#bb0000" data-original="#000000" style="" class=""/>
	</g>
</g>
<g xmlns="http://www.w3.org/2000/svg">
	<g>
		<path d="M354.016,234.859c-5.017-0.925-9.995,1.795-11.925,6.517l-12.747,31.861c-1.026,2.567-2.357,5.002-3.963,7.252    c-11.082,15.519-32.646,19.115-48.165,8.033l-40.992-29.269c-5.359-3.809-7.131-10.962-4.171-16.832    c0.246-0.492,0.523-0.969,0.828-1.427c4.083-6.128,12.361-7.786,18.489-3.703l41.376,27.584c0.543,0.362,1.117,0.673,1.716,0.93    c5.415,2.321,11.685-0.187,14.006-5.602l22.603-52.747c5.077-11.832,14.18-21.484,25.696-27.243l-9.536-19.093    c-16.031,8.023-28.702,21.465-35.765,37.941L293.92,240l-30.709-20.459c-15.538-10.296-36.435-6.466-47.313,8.669    c-11.177,15.552-7.631,37.22,7.921,48.397l41.003,29.269c24.358,17.411,58.115,12.507,76.512-11.115v195.904h21.333l0-245.333    C362.667,240.22,359.038,235.825,354.016,234.859z" fill="#bb0000" data-original="#000000" style="" class=""/>
	</g>
</g>
<g xmlns="http://www.w3.org/2000/svg">
	<g>
		<rect x="469.333" y="330.667" width="21.333" height="160" fill="#bb0000" data-original="#000000" style="" class=""/>
	</g>
</g>
<g xmlns="http://www.w3.org/2000/svg">
	<g>
		<path d="M501.333,21.333H10.667C4.776,21.333,0,26.109,0,32v373.333C0,411.224,4.776,416,10.667,416h330.667v-21.333h-320v-352    h469.333v106.667H512V32C512,26.109,507.224,21.333,501.333,21.333z" fill="#bb0000" data-original="#000000" style="" class=""/>
	</g>
</g>
<g xmlns="http://www.w3.org/2000/svg">
	<g>
		<rect x="405.333" y="394.667" width="21.333" height="96" fill="#bb0000" data-original="#000000" style="" class=""/>
	</g>
</g>
<g xmlns="http://www.w3.org/2000/svg">
	<g>
		<path d="M348.245,406.005l-83.52,31.328h-60.181L88.981,395.317l-7.296,20.032l117.333,42.667    c1.169,0.428,2.403,0.648,3.648,0.651h64c1.267-0.004,2.524-0.231,3.712-0.672l85.333-32L348.245,406.005z" fill="#bb0000" data-original="#000000" style="" class=""/>
	</g>
</g>
<g xmlns="http://www.w3.org/2000/svg">
	<g>
		<rect x="224" y="405.333" width="21.333" height="85.333" fill="#bb0000" data-original="#000000" style="" class=""/>
	</g>
</g>
<g xmlns="http://www.w3.org/2000/svg">
	<g>
		<rect x="10.667" y="74.667" width="341.333" height="21.333" fill="#bb0000" data-original="#000000" style="" class=""/>
	</g>
</g>
<g xmlns="http://www.w3.org/2000/svg">
	<g>
		<path d="M298.667,138.667v-21.333H53.333c-5.891,0-10.667,4.776-10.667,10.667v42.667c0,5.891,4.776,10.667,10.667,10.667h245.333    V160H64v-21.333H298.667z" fill="#bb0000" data-original="#000000" style="" class=""/>
	</g>
</g>
<g xmlns="http://www.w3.org/2000/svg">
	<g>
		<rect x="42.667" y="202.667" width="74.667" height="21.333" fill="#bb0000" data-original="#000000" style="" class=""/>
	</g>
</g>
<g xmlns="http://www.w3.org/2000/svg">
	<g>
		<rect x="138.667" y="202.667" width="21.333" height="21.333" fill="#bb0000" data-original="#000000" style="" class=""/>
	</g>
</g>
<g xmlns="http://www.w3.org/2000/svg">
	<g>
		<rect x="42.667" y="245.333" width="21.333" height="21.333" fill="#bb0000" data-original="#000000" style="" class=""/>
	</g>
</g>
<g xmlns="http://www.w3.org/2000/svg">
	<g>
		<rect x="85.333" y="245.333" width="74.667" height="21.333" fill="#bb0000" data-original="#000000" style="" class=""/>
	</g>
</g>
<g xmlns="http://www.w3.org/2000/svg">
	<g>
		<rect x="42.667" y="288" width="21.333" height="21.333" fill="#bb0000" data-original="#000000" style="" class=""/>
	</g>
</g>
<g xmlns="http://www.w3.org/2000/svg">
	<g>
		<rect x="85.333" y="288" width="21.333" height="21.333" fill="#bb0000" data-original="#000000" style="" class=""/>
	</g>
</g>
<g xmlns="http://www.w3.org/2000/svg">
	<g>
		<rect x="128" y="288" width="21.333" height="21.333" fill="#bb0000" data-original="#000000" style="" class=""/>
	</g>
</g>
<g xmlns="http://www.w3.org/2000/svg">
</g>
<g xmlns="http://www.w3.org/2000/svg">
</g>
<g xmlns="http://www.w3.org/2000/svg">
</g>
<g xmlns="http://www.w3.org/2000/svg">
</g>
<g xmlns="http://www.w3.org/2000/svg">
</g>
<g xmlns="http://www.w3.org/2000/svg">
</g>
<g xmlns="http://www.w3.org/2000/svg">
</g>
<g xmlns="http://www.w3.org/2000/svg">
</g>
<g xmlns="http://www.w3.org/2000/svg">
</g>
<g xmlns="http://www.w3.org/2000/svg">
</g>
<g xmlns="http://www.w3.org/2000/svg">
</g>
<g xmlns="http://www.w3.org/2000/svg">
</g>
<g xmlns="http://www.w3.org/2000/svg">
</g>
<g xmlns="http://www.w3.org/2000/svg">
</g>
<g xmlns="http://www.w3.org/2000/svg">
</g>
</g></svg>
