<svg id="Capa_1" enable-background="new 0 0 512 512" height="512" viewBox="0 0 512 512" width="512" xmlns="http://www.w3.org/2000/svg"><g><path d="m497 417.25v-330h-59.999v-45.001c0-12.406-10.094-22.499-22.5-22.499h-165c-12.407 0-22.5 10.093-22.5 22.499v45.001h-212.001v59.999h15v-44.999h197v171.031l69.651-43.532h65.351v-15h-69.653l-50.349 31.469v-203.969c0-4.135 3.364-7.499 7.5-7.499h165c4.136 0 7.5 3.364 7.5 7.499v165c0 4.136-3.364 7.5-7.5 7.5h-37.5v15h37.5c12.406 0 22.5-10.094 22.5-22.5v-104.999h45v285.001h-252.75v-72.905l-62.756-20.919 17.757-23.676v-62.5c0-9.778-6.27-18.119-15-21.215v-8.785c0-12.406-10.094-22.5-22.5-22.5h-15c-12.407 0-22.5 10.094-22.5 22.5v8.785c-8.73 3.096-15 11.437-15 21.215v62.5l17.757 23.676-62.758 20.919v72.905h-19.25v-225.002h-15v255.001h-15v52.501c0 12.406 10.094 22.499 22.5 22.499h399.501v-15h-399.501c-4.136 0-7.5-3.364-7.5-7.499v-37.501h182.644l7.499 30h101.712l7.501-30h182.644v37.501c0 4.135-3.364 7.499-7.5 7.499h-52.499v15h52.499c12.406 0 22.5-10.093 22.5-22.499v-52.501zm-343.968-112.499 19.216 6.405-32.998 25.383-32.998-25.383 19.215-6.405zm-28.782-127.5c0-4.136 3.364-7.5 7.5-7.5h15c4.136 0 7.5 3.364 7.5 7.5v7.5h-30zm-7.5 22.5h45c4.136 0 7.5 3.364 7.5 7.5v7.5h-33.125l-26.875 16.566v-24.066c0-4.136 3.364-7.5 7.5-7.5zm-7.5 49.187 31.127-19.188h28.873v35l-18.75 25h-22.5l-18.75-25zm-45 76.218 24.838-8.279 50.161 38.586 50.161-38.586 24.838 8.279v62.095h-22.5v-27.771h-15v27.771h-75v-27.771h-15v27.771h-22.5v-62.095zm230.895 122.094h-78.289l-3.75-15h35.394v-15h-218.5v-14.999h452v14.999h-218.5v15h35.394z"/><path d="m302 72.249h75.001v15h-75.001z"/><path d="m287.001 102.249h60v15h-60z"/><path d="m362.001 102.249h15v15h-15z"/><path d="m287.001 132.248h90v15h-90z"/><path d="m317 162.248h60.001v15h-60.001z"/><path d="m287.001 162.248h14.999v15h-14.999z"/><path d="m395.749 328.292v-19.394l13.716-13.713-10.606-10.608-10.611 10.61-10.608-10.606-10.606 10.609 13.715 13.709v19.393z"/><path d="m328.251 301.586h22.499v15h-22.499z"/><path d="m301.36 287.87-10.611 10.612-10.607-10.606-10.606 10.607 10.607 10.606-10.593 10.592 10.607 10.607 10.592-10.593 10.606 10.607 10.606-10.608-10.606-10.605 10.613-10.611z"/><path d="m30 447.25h15v15h-15z"/><path d="m452 117.249h15v15h-15z"/><path d="m392.001 49.749h15v15h-15z"/><path d="m452 147.249h15v45h-15z"/></g></svg>